<svg width="46" height="46" viewBox="0 0 46 46" fill="none" xmlns="http://www.w3.org/2000/svg">
<path d="M13.5945 15.8687C13.0933 16.6923 12.5731 17.0055 11.2024 17.3342C8.68871 17.0471 7.95933 16.2426 7.51318 13.9988C7.69556 12.3528 8.14636 11.7542 9.3999 11.1013C9.20927 8.96973 9.71949 8.06613 11.4719 6.8562C13.2196 6.17503 14.2041 6.10822 15.9697 6.63721C17.2579 4.96915 18.1359 4.4659 19.8948 4.11035C22.3411 4.40666 23.4285 4.90848 24.6621 6.63721C26.1803 6.11801 27.0503 5.96878 28.7725 6.99097L29.8674 9.68628C31.6441 10.8142 32.209 12.6006 32.1921 13.0554C32.1753 13.5103 30.4739 15.8687 29.7495 16.1887C29.0251 16.5088 26.3467 16.3066 26.3972 15.8687C26.4478 15.4307 27.1384 13.0891 26.852 13.426C26.5657 13.7629 25.0496 13.426 25.0496 13.426L23.6514 12.4995L21.6467 13.645L19.3052 12.7354L17.6711 14.2683L14.8411 14.1167L13.5945 15.8687Z" fill="#B2E79D"/>
<path d="M19.8779 3.84534C18.966 3.97112 18.4988 4.10589 17.8654 4.43382C17.1063 4.82913 16.3471 5.47152 15.9742 6.04202C15.8754 6.19027 15.79 6.32054 15.7856 6.32952C15.7766 6.33851 15.6238 6.28909 15.4442 6.2262C14.6356 5.92523 13.7192 5.84437 12.9465 6.00159C11.2979 6.33851 9.69415 7.75355 9.21798 9.29886C9.10118 9.68519 9.01134 10.4129 9.04728 10.7094L9.07423 10.943L8.76876 11.1407C8.38692 11.3922 7.74903 12.0301 7.55587 12.3625C6.91798 13.4407 6.97189 14.8826 7.68165 15.9608C8.06349 16.5448 8.55314 16.958 9.22247 17.277C9.7795 17.5375 10.04 17.5869 10.8486 17.5869C11.5359 17.5825 11.5809 17.578 11.8369 17.4612C12.1738 17.3039 12.3086 17.1782 12.3086 17.0254C12.3086 16.8996 12.1469 16.711 12.0346 16.711C11.9986 16.711 11.8145 16.7604 11.6213 16.8233C11.0014 17.0209 10.1568 16.9491 9.50099 16.6481C8.71485 16.2797 8.20275 15.7092 7.92423 14.8916C7.66368 14.1235 7.81192 13.1397 8.27462 12.5332C8.5172 12.2143 8.93497 11.8504 9.29884 11.6348C9.52345 11.5045 9.7256 11.3608 9.75255 11.3114C9.784 11.2485 9.784 11.1272 9.74806 10.9026C9.57286 9.87386 10.04 8.71937 10.9879 7.82093C12.2457 6.6305 13.8539 6.28909 15.3184 6.90452C15.7002 7.06624 16.0192 7.12913 16.109 7.06624C16.1359 7.04827 16.2707 6.8596 16.4055 6.64847C16.5402 6.43734 16.7469 6.15882 16.8637 6.03304C17.3578 5.48949 18.2697 4.94593 19.1143 4.68988C19.4826 4.57757 19.5859 4.56409 20.2373 4.56409C20.8662 4.56858 21.01 4.58206 21.3873 4.68089C22.6406 5.0178 23.7367 5.85335 24.3072 6.90902C24.433 7.13363 24.5992 7.13812 25.026 6.918C25.5111 6.66644 25.9604 6.55862 26.4994 6.55862C27.3529 6.55862 27.9908 6.82366 28.5928 7.43011C29.1498 7.99163 29.3295 8.43636 29.3744 9.34378L29.4014 9.9053L29.8731 10.1524C30.1336 10.2871 30.475 10.4983 30.6277 10.6196C32.0428 11.7336 32.0158 13.7371 30.5783 15.0758C30.0393 15.5744 29.5496 15.8305 28.8399 15.9742C28.2154 16.1 27.4293 16.0057 26.8858 15.7407C26.7061 15.6508 26.7061 15.6508 26.715 15.4172C26.7285 15.0668 26.9891 14.1325 27.1688 13.7641C27.344 13.4047 27.344 13.2385 27.1553 13.1532C27.0654 13.1127 27.0025 13.1217 26.8094 13.2026C26.1086 13.4946 25.1338 13.3778 24.5723 12.933C24.4061 12.8028 24.3117 12.677 24.1904 12.4209C23.9344 11.8953 23.7772 11.8684 23.4358 12.3041C22.9506 12.9196 22.2363 13.252 21.4053 13.252C20.6506 13.252 20.1654 13.0588 19.6039 12.5287C19.3164 12.2547 19.1996 12.1739 19.1008 12.1739C18.9391 12.1739 18.8852 12.2367 18.6516 12.7174C18.3012 13.4407 17.6229 13.9483 16.8502 14.0651C16.3875 14.1325 15.7811 14.0471 15.2016 13.8315C14.9006 13.7192 14.667 13.7057 14.5772 13.7955C14.5412 13.827 14.4828 13.9752 14.4469 14.119C14.2358 14.9321 13.827 15.3678 13.0498 15.6149C12.6275 15.7496 12.5781 15.7856 12.5781 15.9473C12.5781 16.0461 12.6276 16.1 12.8252 16.2303C13.5619 16.7244 14.2492 18.135 14.5502 19.7881C14.6041 20.0846 14.667 20.4035 14.6895 20.4934L14.7254 20.6641H14.4469C13.818 20.6641 12.7938 20.9381 12.093 21.2885C10.7004 21.9893 9.56388 23.027 8.83165 24.2713C8.17579 25.3809 7.92423 26.6701 8.16681 27.6719C8.32403 28.3053 8.7463 29.1364 9.08771 29.4778L9.20001 29.5946L8.67892 29.6125C8.05001 29.635 7.84786 29.7114 7.69513 29.9854C7.60528 30.1471 7.5963 30.219 7.60528 30.6592C7.62325 31.2297 7.72657 31.5487 7.96915 31.7373C8.04552 31.8002 8.13087 31.8676 8.15333 31.8856C8.20275 31.926 8.2881 32.3528 8.58009 34.0059C8.83614 35.4793 8.93946 35.7129 9.46056 36.0274L9.7211 36.1846L11.3742 36.1981C12.2817 36.2071 13.0274 36.2295 13.0274 36.252C13.0274 36.27 12.9555 36.7102 12.8656 37.2268C12.6815 38.3004 12.6815 38.561 12.8656 38.8799C13.1801 39.41 14.5008 39.9356 16.2168 40.2096C16.9625 40.3309 18.3641 40.3533 18.7998 40.2545C19.6174 40.0703 20.0307 39.6436 20.0352 38.9877C20.0352 38.5205 19.8914 38.1252 19.5815 37.7434L19.4602 37.5907L19.6443 37.2942C19.9274 36.8315 20.3227 35.933 20.5383 35.2772L20.7315 34.6842L21.2031 34.6797H21.6793L22.0252 35.8836C23.0809 39.5313 23.1348 39.702 23.274 39.8996C23.3953 40.0703 23.6783 40.2051 23.9658 40.2366C24.7205 40.3129 27.1238 39.4414 28.3951 38.6283L28.7365 38.4082H32.3258C34.3877 38.4082 36.0274 38.3903 36.1756 38.3633C36.7416 38.2735 37.1908 37.95 37.4065 37.4828C37.4828 37.3166 37.5816 36.8809 37.7164 36.1037C38.0578 34.1631 38.1432 33.6869 38.2555 33.0715C38.3139 32.7436 38.3633 32.4561 38.3633 32.4336C38.3633 32.4157 38.4172 32.3842 38.4846 32.3662C38.6777 32.3213 38.8529 32.1686 38.9248 31.9934C38.9967 31.8227 39.2662 30.794 39.3561 30.3448C39.419 30.0303 39.3695 29.8776 39.1584 29.7203C39.0416 29.635 38.9608 29.626 38.2779 29.6125L37.5277 29.5991L37.658 29.2082C37.9186 28.4401 37.8242 27.5731 37.4334 27.0565C37.3481 26.9442 37.2852 26.8498 37.2941 26.8409C37.3031 26.8364 37.5637 26.7196 37.8781 26.5848C39.1449 26.0367 39.6256 25.6369 39.7289 25.053C39.7828 24.77 39.6795 24.4106 39.4953 24.1994C39.1449 23.8131 38.6508 23.7457 38.0488 24.0063C37.9904 24.0287 37.9815 23.9748 37.977 23.6873L37.9725 23.3369L38.1836 23.1707C38.4756 22.9461 38.8979 22.4475 39.127 22.0612C39.7109 21.0594 39.8816 19.7881 39.5717 18.8223C39.2797 17.9328 38.6373 17.3623 37.7928 17.2455C37.4873 17.2006 37.3885 17.2051 37.0381 17.286C36.818 17.3354 36.5889 17.3893 36.5395 17.4073C36.4451 17.4342 36.4451 17.4297 36.4811 17.241C36.5799 16.7289 36.4766 15.9203 36.252 15.4217C36.1037 15.0938 35.7264 14.6895 35.4613 14.5772C35.2277 14.4739 34.7561 14.4784 34.5135 14.5772C34.4057 14.6176 34.2574 14.7254 34.1811 14.8153C33.907 15.1252 33.8981 15.1881 33.8891 16.3965C33.8846 17.3309 33.8711 17.56 33.7947 17.9104C33.5342 19.0514 32.9143 19.833 31.908 20.2733C31.2072 20.5832 30.165 20.7135 29.1139 20.6237C28.3277 20.5608 27.892 20.4844 26.9397 20.2553L26.1805 20.0711L26.2074 19.9274C26.2479 19.7162 26.5488 16.5717 26.5488 16.3696C26.5488 16.3157 26.5668 16.3157 26.6791 16.3741C27.6988 16.8996 29.3025 16.7828 30.3941 16.1045C31.2926 15.543 32.0293 14.5368 32.2809 13.5215C32.3797 13.1262 32.3887 12.4254 32.3033 12.0166C32.2045 11.5494 31.8541 10.8936 31.4902 10.5028C31.1848 10.1703 30.5559 9.70316 30.2504 9.57737C30.1111 9.51898 30.1111 9.51448 30.0842 9.12366C30.0572 8.70589 29.8865 8.10843 29.6754 7.69515C29.2756 6.90452 28.3367 6.19027 27.3799 5.94769C26.6746 5.77249 25.6594 5.88031 25.0305 6.19476L24.7744 6.32503L24.6172 6.09144C23.7906 4.86956 22.0252 3.91272 20.4709 3.84534C20.2193 3.83636 19.9543 3.83636 19.8779 3.84534ZM24.0108 13.2879C24.5363 13.8 25.2506 14.0561 26.0143 14.0022L26.3602 13.9797L26.2838 14.2133C26.0457 14.8961 25.9334 15.6598 25.7627 17.6768C25.5875 19.7746 25.5561 20.0397 25.4662 20.2957C25.1473 21.2211 24.1455 22.0342 22.8877 22.3891C22.2588 22.5643 21.8141 22.6092 21.0279 22.5823C19.7297 22.5328 19.0154 22.3172 17.1152 21.4053C16.4863 21.0998 15.8484 20.8168 15.7002 20.7719C15.552 20.727 15.4172 20.6821 15.3992 20.6686C15.3813 20.6551 15.3453 20.4709 15.3184 20.2598C15.2375 19.6399 15.0488 18.7864 14.8871 18.2832C14.6895 17.6678 14.2627 16.8188 13.9527 16.4145L13.7057 16.091L13.9932 15.9069C14.366 15.6643 14.667 15.3274 14.8512 14.9366C14.932 14.7614 15.0084 14.5907 15.0219 14.5502C15.0399 14.4828 15.0803 14.4873 15.4172 14.5862C15.9203 14.7389 16.7693 14.7748 17.2275 14.6715C17.9508 14.5008 18.6516 14.0112 19.0693 13.3778L19.2356 13.1217L19.5186 13.3194C20.0936 13.7326 20.6236 13.8944 21.4053 13.8989C22.0432 13.9034 22.3576 13.8315 22.8922 13.5664C23.1572 13.4317 23.602 13.1127 23.6963 12.9825C23.7008 12.9825 23.84 13.1217 24.0108 13.2879ZM35.3535 15.3184C35.7623 15.6373 35.942 16.4684 35.7983 17.3938C35.7578 17.6633 35.7219 17.7487 35.5602 17.9418C35.0795 18.5348 34.9313 19.3299 35.2233 19.7387L35.3176 19.8645L35.2053 20.0981C35.1424 20.2239 35.0795 20.417 35.0615 20.5293C35.0301 20.7719 35.1244 21.1223 35.2682 21.275C35.3535 21.3694 35.367 21.4323 35.3715 21.7916C35.376 22.1825 35.3805 22.2049 35.5018 22.3082C35.6635 22.4475 35.8656 22.452 35.9555 22.3172C36.0004 22.2588 36.0274 22.1196 36.0274 21.9848C36.0274 21.7692 36.0408 21.7422 36.216 21.585C36.4541 21.3649 36.9213 21.1537 37.4873 21.0055C37.7299 20.9381 37.968 20.8528 38.0129 20.8123C38.1926 20.6506 38.0533 20.2598 37.8197 20.2598C37.5143 20.2598 36.517 20.5877 36.1082 20.8258L35.8522 20.9741L35.7848 20.8662C35.4793 20.3991 36.3193 19.6489 37.357 19.4692C37.8467 19.3838 37.968 19.3299 38.0264 19.1682C38.0803 19.0065 37.9815 18.8178 37.8152 18.7594C37.5861 18.6785 36.791 18.8717 36.2609 19.1412C35.7533 19.3973 35.7129 19.3928 35.7129 19.1008C35.7129 18.6696 36.1981 18.2293 36.9168 18.0137C37.1729 17.9373 37.3256 17.9194 37.6356 17.9328C38.0084 17.9463 38.0488 17.9553 38.2869 18.1125C38.5699 18.3012 38.7766 18.5707 38.9158 18.9481C38.9967 19.1637 39.0102 19.303 39.0102 19.8555C39.0147 20.6237 38.9563 20.8887 38.6508 21.5086C38.4801 21.859 38.3723 22.0073 38.0129 22.3801L37.5772 22.8293L37.366 22.7754C37.2447 22.744 37.065 22.735 36.9527 22.7485C36.7102 22.7844 36.3777 22.991 36.2699 23.1707L36.1891 23.31L35.9734 23.1123C35.5781 22.7575 35.0301 22.735 34.6078 23.0584C34.3742 23.2336 34.2574 23.4043 34.1586 23.6963C34.1182 23.8176 34.0688 23.9524 34.0508 23.9883C33.9924 24.1186 32.4965 24.8508 31.8047 25.0934C31.2926 25.2731 30.6817 25.4258 30.6817 25.3719C30.6817 25.3494 30.7356 24.9721 30.8029 24.5364C30.9108 23.8266 30.9242 23.611 30.9242 22.4969L30.9287 21.2571L31.1309 21.2256C31.4723 21.1762 32.1686 20.9336 32.519 20.7494C33.6016 20.17 34.226 19.2625 34.482 17.9014C34.5404 17.6004 34.5629 17.2321 34.5629 16.4549C34.5629 16.4543 34.5629 16.4538 34.5629 16.4532C34.5674 15.4262 34.5675 15.4127 34.6752 15.3004C34.8549 15.1073 35.093 15.1162 35.3535 15.3184ZM26.0547 20.8662C26.0547 20.8752 26.1266 21.1403 26.2119 21.4547C26.5399 22.6541 26.9666 24.752 27.1777 26.2209C27.2451 26.7106 27.299 27.1149 27.2945 27.1239C27.2856 27.1284 27.1508 27.0744 26.9846 26.9981C26.4725 26.7645 26.0143 26.6701 25.4977 26.6926C24.9811 26.7151 24.7699 26.7959 24.5363 27.061C24.1859 27.4608 24.2354 28.1975 24.6846 29.1409C24.7969 29.3789 24.8867 29.5721 24.8867 29.5766C24.8867 29.5766 24.7609 29.5811 24.6037 29.5856C24.0781 29.5946 23.8176 29.7563 23.7772 30.1067C23.7547 30.3178 24.0197 31.7149 24.141 31.9979C24.2084 32.1641 24.4375 32.3438 24.5813 32.3438C24.6217 32.3438 24.6666 32.3617 24.6801 32.3797C24.707 32.4291 24.8733 33.4084 24.9137 33.7588L24.9406 34.0283H21.8141C19.4557 34.0283 18.6875 34.0149 18.6875 33.9744C18.6875 33.7723 19.0199 31.9575 19.0604 31.9305C19.0918 31.908 19.1772 31.8496 19.258 31.8002C19.3434 31.7463 19.4512 31.6116 19.5275 31.4543C19.6309 31.2432 19.6533 31.1264 19.6668 30.767C19.6893 30.2819 19.6399 30.0797 19.4602 29.8641C19.2805 29.6485 19.1143 29.6035 18.5303 29.6035C18.2473 29.6035 18.0137 29.5946 18.0137 29.5856C18.0137 29.5766 18.0541 29.4823 18.1035 29.3744C18.2473 29.051 18.2113 28.6287 18.0092 28.3457C17.9328 28.2379 17.9373 28.2289 18.0496 28.0313C18.3281 27.5641 18.0721 26.8364 17.6049 26.742C17.4971 26.7196 17.4836 26.7016 17.5061 26.5758C17.5195 26.495 17.5061 26.3108 17.4746 26.167C17.4027 25.8211 17.1467 25.5561 16.8053 25.4707C16.5358 25.4078 16.118 25.4393 15.8484 25.5471C15.7541 25.583 15.6643 25.61 15.6553 25.5965C15.6463 25.5875 15.6553 25.5022 15.6777 25.4034C15.7002 25.3045 15.7496 24.9496 15.7945 24.6172C15.9248 23.5705 15.835 22.4026 15.5699 21.6569C15.5295 21.5491 15.4981 21.4547 15.4981 21.4502C15.4981 21.4188 16.2123 21.7108 16.4504 21.841L16.7065 21.9758L16.7783 22.2948C16.8547 22.6272 16.9984 23.5481 17.0479 24.0332C17.0973 24.4825 17.2231 24.7744 17.4207 24.8957L17.5869 24.9991L21.3244 25.0125C25.3764 25.026 25.2865 25.0305 25.4483 24.7834C25.5785 24.5768 25.6279 23.9209 25.5695 23.0494C25.5381 22.6137 25.4932 22.133 25.4662 21.9803L25.4168 21.6973L25.6279 21.4188C25.7447 21.2616 25.875 21.0684 25.9109 20.9875C25.9693 20.8662 26.0547 20.7944 26.0547 20.8662ZM27.5461 21.0639C28.2828 21.2076 28.9117 21.2795 29.7383 21.311L30.2549 21.3334L30.2863 21.6838C30.3447 22.2992 30.2549 23.6289 30.0752 24.8149C30.0123 25.2102 29.9584 25.5336 29.9494 25.5426C29.8775 25.6145 27.8022 25.7942 27.7572 25.7313C27.7438 25.7088 27.7078 25.5246 27.6764 25.3225C27.4652 23.885 26.9576 21.5086 26.7375 20.9426C26.7195 20.8932 26.733 20.8797 26.7869 20.9022C26.8274 20.9157 27.1688 20.992 27.5461 21.0639ZM14.8108 21.6389C15.1611 22.4295 15.251 23.4268 15.0893 24.7295C15.0219 25.2641 15.0309 25.2461 14.7703 25.2461C14.4469 25.2461 14.2762 25.3494 13.782 25.8301L13.3463 26.2569L13.1307 26.1086C12.1693 25.4438 10.8262 25.1024 9.59083 25.2012C9.34376 25.2237 9.13712 25.2326 9.12814 25.2237C9.11915 25.2147 9.17755 25.0844 9.25392 24.9272C9.87384 23.7053 11.0328 22.5867 12.376 21.9219C13.1756 21.5266 13.791 21.3559 14.4469 21.3424L14.676 21.3379L14.8108 21.6389ZM24.9092 22.7844C24.9227 23.1123 24.9317 23.602 24.9227 23.876L24.9092 24.3701L21.3289 24.3836L17.7442 24.3926L17.7262 24.2938C17.7127 24.2354 17.6723 23.8985 17.6318 23.5391C17.5914 23.1797 17.533 22.7619 17.4971 22.6047C17.4567 22.3981 17.4522 22.3262 17.4926 22.3442C18.8313 22.9192 19.815 23.1752 21.001 23.2516C21.8096 23.301 22.8473 23.1438 23.575 22.8653C23.894 22.744 24.469 22.4475 24.6621 22.3082C24.7475 22.2453 24.8328 22.1959 24.8463 22.1914C24.8643 22.1914 24.8912 22.461 24.9092 22.7844ZM37.2941 23.4807C37.4783 23.6469 37.366 24.2084 37.0246 24.8463C36.8404 25.1922 36.8225 25.2461 36.8719 25.3539C36.9303 25.4797 37.092 25.5426 37.2627 25.4977C37.3256 25.4797 37.5412 25.3135 37.7434 25.1203C38.1836 24.7071 38.3274 24.6037 38.5565 24.5274C38.9113 24.4151 39.1629 24.6891 39.0191 25.035C38.9248 25.2641 38.6328 25.4617 37.6715 25.9424L36.8225 26.3647L36.4137 26.1625C36.0229 25.9694 35.5332 25.8346 35.2367 25.8301C35.0989 25.8301 35.0975 25.8257 34.9318 25.2938C34.9302 25.2884 34.9285 25.283 34.9268 25.2776C34.7336 24.6621 34.6707 24.0916 34.7695 23.8535C34.9043 23.5301 35.2637 23.3998 35.5018 23.584C35.6725 23.7188 35.7174 23.9344 35.659 24.3432C35.5916 24.7879 35.6275 24.9182 35.8252 25.0035C36.0768 25.1069 36.1801 25.026 36.3418 24.6127C36.4137 24.4196 36.4766 24.2354 36.4766 24.2039C36.4766 24.1725 36.526 24.0377 36.5889 23.9075C36.791 23.4762 37.0875 23.2965 37.2941 23.4807ZM34.1811 25.008C34.2125 25.1518 34.2799 25.3809 34.3248 25.5112C34.4147 25.7807 34.3967 25.8301 34.1945 25.8301C33.8846 25.8301 33.1703 26.167 32.8334 26.468C32.3168 26.9217 31.7283 28.1121 31.4004 29.3655L31.351 29.5586H30.7131C30.0842 29.5586 30.0707 29.5586 30.0078 29.4508C29.8461 29.1813 29.2262 28.5299 28.777 28.1526C28.5074 27.9235 28.2289 27.6899 28.157 27.627C28.0447 27.5282 28.0223 27.4563 27.9639 27.0879C27.9234 26.8543 27.883 26.6073 27.8695 26.5444L27.8471 26.4276L28.3547 26.3961C29.4732 26.3242 30.5514 26.158 31.3914 25.92C31.9125 25.7762 33.0356 25.3135 33.5791 25.026C33.8531 24.8823 34.0867 24.761 34.1002 24.7565C34.1137 24.7565 34.1541 24.8688 34.1811 25.008ZM11.2395 25.9828C11.7381 26.0996 12.2188 26.2883 12.5826 26.5129L12.8027 26.6477L12.6186 26.9127C12.4344 27.1823 12.3086 27.4787 12.3086 27.636C12.3086 27.6809 12.2322 27.8381 12.1379 27.9774C11.9402 28.2694 11.4371 29.078 11.2529 29.3879L11.1317 29.6035H10.7363C10.2692 29.6035 10.2018 29.5811 9.90978 29.343C9.42462 28.9432 8.9754 28.211 8.83165 27.5821C8.71036 27.0655 8.75978 26.0951 8.91251 25.9694C9.11915 25.7987 10.4758 25.8076 11.2395 25.9828ZM14.9231 26.1535C14.9455 26.5129 15.0309 26.5264 15.7676 26.2883C16.1045 26.1805 16.4369 26.0996 16.5537 26.0996C16.7424 26.0996 16.7649 26.1131 16.8233 26.2479C16.9221 26.486 16.8637 26.6252 16.5762 26.8364C16.2617 27.061 16.1539 27.2182 16.1943 27.4024C16.2527 27.6719 16.4953 27.6944 16.9356 27.4653C17.2231 27.317 17.2545 27.3125 17.3713 27.3664C17.4746 27.4159 17.5016 27.4608 17.5106 27.609C17.524 27.7752 17.5061 27.8112 17.3578 27.9325C17.2635 28.0088 17.0389 28.1481 16.8502 28.2379C16.4279 28.4491 16.3067 28.5524 16.3067 28.7051C16.3067 29.0016 16.5537 29.1184 16.8817 28.9701C17.3129 28.777 17.4207 28.75 17.4746 28.8174C17.5779 28.9387 17.5375 29.1992 17.4027 29.343C17.1422 29.6125 17.259 29.6035 14.4873 29.6035C13.0858 29.6035 11.9492 29.5901 11.9582 29.5676C12.1604 29.1184 12.6815 28.2694 13.1531 27.6045C13.6428 26.9172 14.6131 25.92 14.7928 25.92C14.9006 25.92 14.9096 25.9334 14.9231 26.1535ZM35.7578 26.5848C36.1621 26.7285 36.3867 26.8588 36.6383 27.0924C37.1953 27.6225 37.3031 28.476 36.9258 29.3565L36.8404 29.5586H34.4326C33.1119 29.5586 32.0293 29.5541 32.0293 29.5451C32.0293 29.4912 32.4471 28.3143 32.5414 28.1076C32.6537 27.8516 32.6582 27.8426 32.802 27.8741C32.8828 27.892 33.1973 28.0043 33.5027 28.1256C33.8037 28.2469 34.0822 28.3457 34.1182 28.3457C34.3203 28.3457 34.4326 28.0133 34.2979 27.8201C34.226 27.7168 33.6285 27.4518 33.2557 27.3575C33.1254 27.3215 33.0176 27.2721 33.0176 27.2407C33.0176 27.1553 33.4264 26.8094 33.6734 26.6836C34.0643 26.4905 34.2529 26.459 34.9043 26.477C35.3625 26.4905 35.5691 26.5174 35.7578 26.5848ZM26.0682 27.3799C26.9127 27.5596 28.3277 28.476 29.0375 29.3071L29.2531 29.5586H28.5793H27.9055L27.7662 29.334C27.609 29.0825 27.4877 29.0151 27.2945 29.069C27.1193 29.1184 27.0789 29.1858 27.1059 29.3879L27.1238 29.5586H26.3602H25.601L25.3584 29.051C25.1293 28.5838 24.9317 27.9684 24.9317 27.7438C24.9317 27.6045 25.0574 27.4473 25.2192 27.3754C25.3988 27.2991 25.6863 27.2991 26.0682 27.3799ZM38.6777 30.2774C38.6777 30.3043 38.6059 30.6367 38.5205 31.0141C38.4352 31.3959 38.3633 31.7194 38.3633 31.7328C38.3633 31.7463 35.2951 31.7553 31.5486 31.7508L24.7295 31.7373L24.5858 31.086C24.5049 30.7266 24.4375 30.3852 24.4375 30.3223V30.21L31.5576 30.2235C36.3283 30.228 38.6777 30.2459 38.6777 30.2774ZM10.7363 30.2504C10.7363 30.2594 10.7049 30.3537 10.669 30.4571C10.633 30.5604 10.6016 30.6772 10.6016 30.7086C10.6016 30.8164 10.7768 30.9512 10.907 30.9512C11.0643 30.9512 11.1361 30.8748 11.3158 30.511L11.4551 30.2325H15.1746C18.1934 30.2325 18.9121 30.2414 18.975 30.2908C19.0963 30.3762 19.0604 30.9377 18.9301 31.1174L18.8358 31.2432L13.6158 31.2567L8.39591 31.2657L8.32853 31.1084C8.24317 30.9018 8.20275 30.5873 8.23868 30.4346C8.25665 30.3717 8.31505 30.2998 8.36896 30.2774C8.46329 30.2414 10.7363 30.2145 10.7363 30.2504ZM10.7723 32.0832C10.8082 32.6762 11.0014 35.3086 11.0193 35.4614C11.0283 35.5377 10.9924 35.5422 10.4893 35.5377C9.74357 35.5242 9.57735 35.4299 9.4381 34.9268C9.39767 34.783 9.11915 33.1524 8.95743 32.1057L8.93048 31.9395H9.84689H10.7633L10.7723 32.0832ZM13.3059 32.2629C13.3149 32.4426 13.3149 33.2512 13.3059 34.0598L13.2834 35.5332H12.4883H11.6887L11.6617 35.2278C11.6438 35.0616 11.5943 34.3518 11.5449 33.6465C11.4955 32.9412 11.4416 32.2719 11.4281 32.1506L11.4012 31.9395H12.3445H13.2879L13.3059 32.2629ZM15.8574 32.0518C15.8574 32.2 15.6418 35.0391 15.6059 35.3446L15.5789 35.5826L14.7658 35.5647L13.9483 35.5512V35.2727C13.9527 35.12 13.9572 34.3069 13.9617 33.4668L13.9707 31.9395H14.9141H15.8574V32.0518ZM18.3102 32.0832C18.2967 32.1641 18.2113 32.6852 18.126 33.2422C17.8969 34.7022 17.816 35.0616 17.6768 35.2457C17.4926 35.4883 17.3713 35.5287 16.7738 35.5377L16.2393 35.5422L16.2527 35.4164C16.3201 34.6303 16.4863 32.4785 16.4953 32.245L16.5088 31.9395H17.4207H18.3326L18.3102 32.0832ZM37.6445 32.4651C37.6445 32.5055 37.6041 32.775 37.5547 33.0625C37.5053 33.3455 37.3436 34.3159 37.1953 35.2188C37.0471 36.1217 36.8943 36.9528 36.8539 37.0696C36.782 37.2897 36.4811 37.6086 36.2699 37.6895C36.2025 37.7164 34.8145 37.7344 32.6627 37.7344H29.1678L29.1408 37.4244C29.0824 36.7102 28.5299 36.0992 27.7393 35.8657C27.2496 35.7219 26.7195 35.7623 25.8975 36.0049C25.8076 36.0319 25.7986 36.0049 25.7447 35.4569C25.6953 34.9492 25.4797 33.1793 25.3988 32.5998L25.3674 32.3887H31.5082C37.2582 32.3887 37.6445 32.3932 37.6445 32.4651ZM20.0352 34.6797C20.0352 34.7067 19.9543 34.9537 19.851 35.2323C19.6309 35.8387 19.2311 36.6563 18.8942 37.1908C18.7549 37.411 18.6426 37.6356 18.6426 37.694C18.6426 37.7658 18.7145 37.8647 18.8672 37.995C19.1861 38.2735 19.3344 38.543 19.3389 38.8619C19.3389 39.3381 19.0469 39.5537 18.2967 39.6256C17.2365 39.7289 15.7406 39.5268 14.5547 39.118C13.9752 38.9158 13.6158 38.7317 13.4721 38.552C13.3508 38.3992 13.3643 38.1612 13.5754 37.0246L13.7236 36.2116L15.5879 36.1981L17.4522 36.1846L17.7576 36.0364C18.2203 35.8073 18.3731 35.5647 18.5303 34.8055L18.5527 34.6842L19.2625 34.6662C19.6488 34.6617 19.9813 34.6483 20.0037 34.6438C20.0217 34.6393 20.0352 34.6573 20.0352 34.6797ZM25.0215 34.6797C25.026 34.9223 25.2955 36.7686 25.3359 36.8135C25.4258 36.9213 25.61 36.8944 25.9783 36.7237C26.4725 36.4946 26.8184 36.4182 27.2272 36.4407C27.8516 36.4766 28.3637 36.836 28.4805 37.3256C28.5299 37.5412 28.5299 37.5727 28.449 37.6805C28.3143 37.8692 27.8022 38.1926 27.0654 38.561C26.0996 39.0371 25.2102 39.3606 24.4106 39.5178C23.9344 39.6076 23.84 39.5852 23.7502 39.3426C23.6514 39.0776 22.3711 34.7426 22.3711 34.6752C22.3711 34.6662 22.9686 34.6573 23.6963 34.6573C24.424 34.6573 25.0215 34.6662 25.0215 34.6797Z" fill="#268F3A"/>
<path d="M14.8108 21.6389C15.1611 22.4295 15.251 23.4268 15.0893 24.7295C15.0219 25.2641 15.0309 25.2461 14.7703 25.2461C14.4469 25.2461 14.2762 25.3494 13.782 25.8301L13.3463 26.2569L13.1307 26.1086C12.1693 25.4438 10.8262 25.1024 9.59083 25.2012C9.34376 25.2237 9.13712 25.2326 9.12814 25.2237C9.11915 25.2147 9.17755 25.0844 9.25392 24.9272C9.87384 23.7053 11.0328 22.5867 12.376 21.9219C13.1756 21.5266 13.791 21.3559 14.4469 21.3424L14.676 21.3379L14.8108 21.6389Z" fill="#B1E69B"/>
<path d="M27.5461 21.0639C28.2828 21.2076 28.9117 21.2795 29.7383 21.311L30.2549 21.3334L30.2863 21.6838C30.3447 22.2992 30.2549 23.6289 30.0752 24.8149C30.0123 25.2102 29.9584 25.5336 29.9494 25.5426C29.8775 25.6145 27.8022 25.7942 27.7572 25.7313C27.7438 25.7088 27.7078 25.5246 27.6764 25.3225C27.4652 23.885 26.9576 21.5086 26.7375 20.9426C26.7195 20.8932 26.733 20.8797 26.7869 20.9022C26.8274 20.9157 27.1688 20.992 27.5461 21.0639Z" fill="#B0E498"/>
<path d="M24.9092 22.7844C24.9227 23.1123 24.9317 23.602 24.9227 23.876L24.9092 24.3701L21.3289 24.3836L17.7442 24.3926L17.7262 24.2938C17.7127 24.2354 17.6723 23.8985 17.6318 23.5391C17.5914 23.1797 17.533 22.7619 17.4971 22.6047C17.4567 22.3981 17.4522 22.3262 17.4926 22.3442C18.8313 22.9192 19.815 23.1752 21.001 23.2516C21.8096 23.301 22.8473 23.1438 23.575 22.8653C23.894 22.744 24.469 22.4475 24.6621 22.3082C24.7475 22.2453 24.8328 22.1959 24.8463 22.1914C24.8643 22.1914 24.8912 22.461 24.9092 22.7844Z" fill="#B2E79D"/>
<path d="M20.0352 34.6797C20.0352 34.7067 19.9543 34.9537 19.851 35.2323C19.6309 35.8387 19.2311 36.6563 18.8942 37.1908C18.7549 37.411 18.6426 37.6356 18.6426 37.694C18.6426 37.7658 18.7145 37.8647 18.8672 37.995C19.1861 38.2735 19.3344 38.543 19.3389 38.8619C19.3389 39.3381 19.0469 39.5537 18.2967 39.6256C17.2365 39.7289 15.7406 39.5268 14.5547 39.118C13.9752 38.9158 13.6158 38.7317 13.4721 38.552C13.3508 38.3992 13.3643 38.1612 13.5754 37.0246L13.7236 36.2116L15.5879 36.1981L17.4522 36.1846L17.7576 36.0364C18.2203 35.8073 18.3731 35.5647 18.5303 34.8055L18.5527 34.6842L19.2625 34.6662C19.6488 34.6617 19.9813 34.6483 20.0037 34.6438C20.0217 34.6393 20.0352 34.6573 20.0352 34.6797Z" fill="#B0E498"/>
<path d="M25.0215 34.6797C25.026 34.9223 25.2955 36.7686 25.3359 36.8135C25.4258 36.9213 25.61 36.8944 25.9783 36.7237C26.4725 36.4946 26.8184 36.4182 27.2272 36.4407C27.8516 36.4766 28.3637 36.836 28.4805 37.3256C28.5299 37.5412 28.5299 37.5727 28.449 37.6805C28.3143 37.8692 27.8022 38.1926 27.0654 38.561C26.0996 39.0371 25.2102 39.3606 24.4106 39.5178C23.9344 39.6076 23.84 39.5852 23.7502 39.3426C23.6514 39.0776 22.3711 34.7426 22.3711 34.6752C22.3711 34.6662 22.9686 34.6573 23.6963 34.6573C24.424 34.6573 25.0215 34.6662 25.0215 34.6797Z" fill="#B0E498"/>
<path d="M24.0108 13.2879C24.5363 13.8 25.2506 14.0561 26.0143 14.0022L26.3602 13.9797L26.2838 14.2133C26.0457 14.8961 25.9334 15.6598 25.7627 17.6768C25.5875 19.7746 25.5561 20.0397 25.4662 20.2957C25.1473 21.2211 24.1455 22.0342 22.8877 22.3891C22.2588 22.5643 21.8141 22.6092 21.0279 22.5823C19.7297 22.5328 19.0154 22.3172 17.1152 21.4053C16.4863 21.0998 15.8484 20.8168 15.7002 20.7719C15.552 20.727 15.4172 20.6821 15.3992 20.6686C15.3813 20.6551 15.3453 20.4709 15.3184 20.2598C15.2375 19.6399 15.0488 18.7864 14.8871 18.2832C14.6895 17.6678 14.2627 16.8188 13.9527 16.4145L13.7057 16.091L13.9932 15.9069C14.366 15.6643 14.667 15.3274 14.8512 14.9366C14.932 14.7614 15.0084 14.5907 15.0219 14.5502C15.0399 14.4828 15.0803 14.4873 15.4172 14.5862C15.9203 14.7389 16.7693 14.7748 17.2275 14.6715C17.9508 14.5008 18.6516 14.0112 19.0693 13.3778L19.2356 13.1217L19.5186 13.3194C20.0936 13.7326 20.6236 13.8944 21.4053 13.8989C22.0432 13.9034 22.3576 13.8315 22.8922 13.5664C23.1572 13.4317 23.602 13.1127 23.6963 12.9825C23.7008 12.9825 23.84 13.1217 24.0108 13.2879Z" fill="#D8F0C3"/>
<path d="M35.3535 15.3184C35.7623 15.6373 35.942 16.4684 35.7983 17.3938C35.7578 17.6633 35.7219 17.7487 35.5602 17.9418C35.0795 18.5348 34.9313 19.3299 35.2233 19.7387L35.3176 19.8645L35.2053 20.0981C35.1424 20.2239 35.0795 20.417 35.0615 20.5293C35.0301 20.7719 35.1244 21.1223 35.2682 21.275C35.3535 21.3694 35.367 21.4323 35.3715 21.7916C35.376 22.1825 35.3805 22.2049 35.5018 22.3082C35.6635 22.4475 35.8656 22.452 35.9555 22.3172C36.0004 22.2588 36.0274 22.1196 36.0274 21.9848C36.0274 21.7692 36.0408 21.7422 36.216 21.585C36.4541 21.3649 36.9213 21.1537 37.4873 21.0055C37.7299 20.9381 37.968 20.8528 38.0129 20.8123C38.1926 20.6506 38.0533 20.2598 37.8197 20.2598C37.5143 20.2598 36.517 20.5877 36.1082 20.8258L35.8522 20.9741L35.7848 20.8662C35.4793 20.3991 36.3193 19.6489 37.357 19.4692C37.8467 19.3838 37.968 19.3299 38.0264 19.1682C38.0803 19.0065 37.9815 18.8178 37.8152 18.7594C37.5861 18.6785 36.791 18.8717 36.2609 19.1412C35.7533 19.3973 35.7129 19.3928 35.7129 19.1008C35.7129 18.6696 36.1981 18.2293 36.9168 18.0137C37.1729 17.9373 37.3256 17.9194 37.6356 17.9328C38.0084 17.9463 38.0488 17.9553 38.2869 18.1125C38.5699 18.3012 38.7766 18.5707 38.9158 18.9481C38.9967 19.1637 39.0102 19.303 39.0102 19.8555C39.0147 20.6237 38.9563 20.8887 38.6508 21.5086C38.4801 21.859 38.3723 22.0073 38.0129 22.3801L37.5772 22.8293L37.366 22.7754C37.2447 22.744 37.065 22.735 36.9527 22.7485C36.7102 22.7844 36.3777 22.991 36.2699 23.1707L36.1891 23.31L35.9734 23.1123C35.5781 22.7575 35.0301 22.735 34.6078 23.0584C34.3742 23.2336 34.2574 23.4043 34.1586 23.6963C34.1182 23.8176 34.0688 23.9524 34.0508 23.9883C33.9924 24.1186 32.4965 24.8508 31.8047 25.0934C31.2926 25.2731 30.6817 25.4258 30.6817 25.3719C30.6817 25.3494 30.7356 24.9721 30.8029 24.5364C30.9108 23.8266 30.9242 23.611 30.9242 22.4969L30.9287 21.2571L31.1309 21.2256C31.4723 21.1762 32.1686 20.9336 32.519 20.7494C33.6016 20.17 34.226 19.2625 34.482 17.9014C34.5404 17.6004 34.5629 17.2321 34.5629 16.4549L34.5629 16.4532C34.5674 15.4262 34.5675 15.4127 34.6752 15.3004C34.8549 15.1073 35.093 15.1162 35.3535 15.3184Z" fill="#D8F0C3"/>
<path d="M11.2395 25.9828C11.7381 26.0996 12.2188 26.2883 12.5826 26.5129L12.8027 26.6477L12.6186 26.9127C12.4344 27.1823 12.3086 27.4787 12.3086 27.636C12.3086 27.6809 12.2322 27.8381 12.1379 27.9774C11.9402 28.2694 11.4371 29.078 11.2529 29.3879L11.1317 29.6035H10.7363C10.2692 29.6035 10.2018 29.5811 9.90978 29.343C9.42462 28.9432 8.9754 28.211 8.83165 27.5821C8.71036 27.0655 8.75978 26.0951 8.91251 25.9694C9.11915 25.7987 10.4758 25.8076 11.2395 25.9828Z" fill="#D8F0C3"/>
<path d="M14.9231 26.1535C14.9455 26.5129 15.0309 26.5264 15.7676 26.2883C16.1045 26.1805 16.4369 26.0996 16.5537 26.0996C16.7424 26.0996 16.7649 26.1131 16.8233 26.2479C16.9221 26.486 16.8637 26.6252 16.5762 26.8364C16.2617 27.061 16.1539 27.2182 16.1943 27.4024C16.2527 27.6719 16.4953 27.6944 16.9356 27.4653C17.2231 27.317 17.2545 27.3125 17.3713 27.3664C17.4746 27.4159 17.5016 27.4608 17.5106 27.609C17.524 27.7752 17.5061 27.8112 17.3578 27.9325C17.2635 28.0088 17.0389 28.1481 16.8502 28.2379C16.4279 28.4491 16.3067 28.5524 16.3067 28.7051C16.3067 29.0016 16.5537 29.1184 16.8817 28.9701C17.3129 28.777 17.4207 28.75 17.4746 28.8174C17.5779 28.9387 17.5375 29.1992 17.4027 29.343C17.1422 29.6125 17.259 29.6035 14.4873 29.6035C13.0858 29.6035 11.9492 29.5901 11.9582 29.5676C12.1604 29.1184 12.6815 28.2694 13.1531 27.6045C13.6428 26.9172 14.6131 25.92 14.7928 25.92C14.9006 25.92 14.9096 25.9334 14.9231 26.1535Z" fill="#D8F0C3"/>
<path d="M18.7324 16.1401C18.1664 16.5174 18.3281 17.5686 18.957 17.6405C19.3479 17.6809 19.6488 17.335 19.6533 16.8454C19.6578 16.2389 19.1547 15.8526 18.7324 16.1401Z" fill="#268F3A"/>
<path d="M22.8428 16.1224C22.6182 16.2707 22.4834 16.5537 22.4879 16.8681C22.4924 17.3219 22.708 17.6094 23.0809 17.6453C23.2695 17.6633 23.3145 17.6453 23.4447 17.5375C23.7592 17.2769 23.849 16.8097 23.6649 16.4414C23.5391 16.1988 23.3863 16.082 23.1527 16.0551C23.027 16.0371 22.9416 16.0596 22.8428 16.1224Z" fill="#268F3A"/>
<path d="M19.3299 18.6516C19.2086 18.71 19.1187 18.9167 19.1592 19.0425C19.1996 19.1817 19.523 19.4378 19.851 19.5905C20.5697 19.9319 21.3514 19.9948 21.9982 19.7702C22.6586 19.5411 23.0764 19.1997 23.0269 18.9391C22.9955 18.7774 22.8517 18.6427 22.7125 18.6427C22.6586 18.6427 22.5058 18.728 22.3711 18.8268C21.9039 19.1817 21.4142 19.3075 20.8437 19.2266C20.4844 19.1772 19.9723 18.9571 19.7027 18.737C19.5141 18.5888 19.4826 18.5798 19.3299 18.6516Z" fill="#268F3A"/>
<path d="M36.5574 5.93418C36.4361 6.00156 36.3822 6.13184 36.2879 6.59902C36.0363 7.85234 35.1379 8.74629 33.8981 8.98887C33.7094 9.0248 33.5926 9.07422 33.5027 9.16406C33.2422 9.42461 33.3994 9.65371 33.9385 9.79297C34.6482 9.98164 35.0885 10.2287 35.5332 10.6869C35.969 11.1361 36.1441 11.518 36.3688 12.5242C36.4047 12.6949 36.5889 12.8477 36.7551 12.8477C37.0201 12.8432 37.0965 12.7398 37.1998 12.2412C37.3705 11.3742 37.7973 10.7004 38.4486 10.2691C38.7945 10.04 38.9652 9.96367 39.4818 9.81543C39.9041 9.68965 40.0254 9.60879 40.0254 9.43809C40.0254 9.21348 39.9176 9.13711 39.383 8.96641C38.0848 8.55762 37.375 7.69512 37.1279 6.23066C37.1145 6.13633 37.0606 6.01953 37.0111 5.97012C36.9168 5.87578 36.6832 5.85781 36.5574 5.93418ZM36.8764 7.71309C37.0201 8.01406 37.3211 8.42285 37.6041 8.71035C37.8332 8.94395 38.3947 9.34375 38.4936 9.34375C38.6014 9.34375 38.534 9.42012 38.3498 9.50996C37.8197 9.76602 37.1055 10.5117 36.8404 11.0867L36.7326 11.3203L36.6473 11.1316C36.3688 10.5072 35.7758 9.87832 35.1289 9.52793L34.9043 9.40215L35.2861 9.16855C35.4928 9.04277 35.7758 8.83164 35.9106 8.70137C36.1441 8.46777 36.544 7.91074 36.6652 7.63672C36.6967 7.56484 36.7326 7.50195 36.7461 7.50195C36.7641 7.50195 36.818 7.59629 36.8764 7.71309Z" fill="#268F3A"/>
<path d="M39.5537 11.4331C39.4144 11.5679 39.4099 11.7296 39.5447 11.8778C39.5986 11.9407 39.8681 12.1159 40.1376 12.2687C40.4117 12.4214 40.7845 12.637 40.9687 12.7493C41.3685 12.9919 41.5976 13.0233 41.7369 12.8526C41.8447 12.7224 41.8447 12.5741 41.7459 12.4483C41.6785 12.372 40.4072 11.5858 40.0164 11.3837C39.8367 11.2894 39.675 11.3073 39.5537 11.4331Z" fill="#268F3A"/>
<path d="M38.4082 13.0589C38.2959 13.0993 38.2285 13.2161 38.2285 13.3643C38.2285 13.4856 38.3453 13.6473 38.9518 14.3481C39.4234 14.8962 39.7154 15.1926 39.7873 15.2106C39.949 15.251 40.1242 15.1792 40.2006 15.0399C40.2635 14.9321 40.2635 14.9051 40.1961 14.7704C40.1152 14.6042 39.0326 13.3329 38.8125 13.1487C38.6777 13.0319 38.5564 13.0049 38.4082 13.0589Z" fill="#268F3A"/>
</svg>
