<svg width="16" height="16" viewBox="0 0 16 16" fill="none" xmlns="http://www.w3.org/2000/svg">
<g clip-path="url(#clip0_583_3816)">
<path d="M14.6667 11.28V13.28C14.6674 13.4657 14.6294 13.6494 14.555 13.8195C14.4806 13.9897 14.3715 14.1424 14.2347 14.2679C14.0979 14.3934 13.9364 14.489 13.7605 14.5485C13.5846 14.6079 13.3982 14.63 13.2133 14.6133C11.1619 14.3904 9.19133 13.6894 7.46 12.5667C5.84922 11.5431 4.48356 10.1774 3.46 8.56665C2.33332 6.82745 1.63216 4.84731 1.41333 2.78665C1.39667 2.60229 1.41858 2.41649 1.47767 2.24107C1.53675 2.06564 1.63171 1.90444 1.75651 1.76773C1.88131 1.63102 2.0332 1.52179 2.20253 1.447C2.37185 1.37221 2.55489 1.33349 2.74 1.33332H4.74C5.06354 1.33013 5.37719 1.4447 5.62251 1.65567C5.86782 1.86664 6.02805 2.15961 6.07333 2.47998C6.15775 3.12003 6.3143 3.74847 6.54 4.35332C6.62969 4.59193 6.64911 4.85126 6.59594 5.10057C6.54277 5.34988 6.41924 5.57872 6.24 5.75998L5.39333 6.60665C6.34237 8.27568 7.7243 9.65761 9.39333 10.6067L10.24 9.75998C10.4213 9.58074 10.6501 9.45722 10.8994 9.40405C11.1487 9.35088 11.408 9.37029 11.6467 9.45998C12.2515 9.68568 12.88 9.84224 13.52 9.92665C13.8438 9.97234 14.1396 10.1355 14.351 10.385C14.5624 10.6345 14.6748 10.953 14.6667 11.28Z" stroke="#A6A6A6" stroke-linecap="round" stroke-linejoin="round"/>
</g>
<defs>
<clipPath id="clip0_583_3816">
<rect width="16" height="16" fill="white"/>
</clipPath>
</defs>
</svg>
