<svg width="25" height="25" viewBox="0 0 25 25" fill="none" xmlns="http://www.w3.org/2000/svg">
<path d="M17 9.89996L8 4.70996" stroke="#6C6C6C" stroke-width="2" stroke-linecap="round" stroke-linejoin="round"/>
<path d="M21.5 16.4999V8.4999C21.4996 8.14918 21.4071 7.80471 21.2315 7.50106C21.056 7.19742 20.8037 6.94526 20.5 6.7699L13.5 2.7699C13.196 2.59437 12.8511 2.50195 12.5 2.50195C12.1489 2.50195 11.804 2.59437 11.5 2.7699L4.5 6.7699C4.19626 6.94526 3.94398 7.19742 3.76846 7.50106C3.59294 7.80471 3.50036 8.14918 3.5 8.4999V16.4999C3.50036 16.8506 3.59294 17.1951 3.76846 17.4987C3.94398 17.8024 4.19626 18.0545 4.5 18.2299L11.5 22.2299C11.804 22.4054 12.1489 22.4979 12.5 22.4979C12.8511 22.4979 13.196 22.4054 13.5 22.2299L20.5 18.2299C20.8037 18.0545 21.056 17.8024 21.2315 17.4987C21.4071 17.1951 21.4996 16.8506 21.5 16.4999Z" stroke="#6C6C6C" stroke-width="2" stroke-linecap="round" stroke-linejoin="round"/>
<path d="M3.76999 7.45996L12.5 12.51L21.23 7.45996" stroke="#6C6C6C" stroke-width="2" stroke-linecap="round" stroke-linejoin="round"/>
<path d="M12.5 22.58V12.5" stroke="#6C6C6C" stroke-width="2" stroke-linecap="round" stroke-linejoin="round"/>
</svg>
